name C:\Users\Graham\Documents\MATLAB\MOtoNMS_v2_2\MyData\ElaboratedData\S7\17-05-22\dynamicElaborations\rightStSt\\EA2\EA2.mot
datacolumns 55
datarows 7
range 0.97000000000000 0.98000000000000
endheader
time	    ground_force1_vx	    ground_force1_vy	    ground_force1_vz	    ground_force1_px	    ground_force1_py	    ground_force1_pz	    ground_force2_vx	    ground_force2_vy	    ground_force2_vz	    ground_force2_px	    ground_force2_py	    ground_force2_pz	    ground_torque1_x	    ground_torque1_y	    ground_torque1_z	    ground_torque2_x	    ground_torque2_y	    ground_torque2_z	apo_force_vx	apo_force_vy	apo_force_vz	apo_force_px	apo_force_py	apo_force_pz	apo_torque_x	apo_torque_y	apo_torque_z	1_apo_force_vx	1_apo_force_vy	1_apo_force_vz	1_apo_force_px	1_apo_force_py	1_apo_force_pz	1_apo_torque_x	1_apo_torque_y	1_apo_torque_z	apo_group_force_vx	apo_group_force_vy	apo_group_force_vz	apo_group_force_px	apo_group_force_py	apo_group_force_pz	apo_group_torque_x	apo_group_torque_y	apo_group_torque_z	1_apo_group_force_vx	1_apo_group_force_vy	1_apo_group_force_vz	1_apo_group_force_px	1_apo_group_force_py	1_apo_group_force_pz	1_apo_group_torque_x	1_apo_group_torque_y	1_apo_group_torque_z	
0.97000000000000	66.75748139000000	702.44365669000001	-54.13659174000000	0.07120958000000	-0.00000000000000	0.12582938000000	9.07951872000000	86.53476458999999	-12.33972144000000	0.39053059000000	-0.00000000000000	-0.08561368000000	-0.00000000000000	-0.36078651000000	0.00000000000000	0.00000000000000	0.25287291000000	-0.00000000000000	0.00000000000000	0.00000000000000	0.00000000000000	0.00000000000000	0.00000000000000	0.00000000000000	0.00000000000000	0.00000000000000	0.68082164195446	0.00000000000000	0.00000000000000	0.00000000000000	0.00000000000000	0.00000000000000	0.00000000000000	0.00000000000000	0.00000000000000	-0.03502962598015	0.00000000000000	0.00000000000000	0.00000000000000	0.00000000000000	0.00000000000000	0.00000000000000	0.00000000000000	0.00000000000000	-0.68082164195446	0.00000000000000	0.00000000000000	0.00000000000000	0.00000000000000	0.00000000000000	0.00000000000000	0.00000000000000	0.00000000000000	0.03502962598015	
0.97166700000000	67.79255800999999	700.85070475999999	-53.88135494000000	0.07025260000000	-0.00000000000000	0.12585979000000	9.00861912000000	91.57280584000000	-12.74134863000000	0.39231154000000	-0.00000000000000	-0.08583205000000	-0.00000000000000	-0.38973208000000	0.00000000000000	0.00000000000000	0.25596693000000	-0.00000000000000	0.00000000000000	0.00000000000000	0.00000000000000	0.00000000000000	0.00000000000000	0.00000000000000	0.00000000000000	0.00000000000000	0.73550080435253	0.00000000000000	0.00000000000000	0.00000000000000	0.00000000000000	0.00000000000000	0.00000000000000	0.00000000000000	0.00000000000000	-0.04871155315627	0.00000000000000	0.00000000000000	0.00000000000000	0.00000000000000	0.00000000000000	0.00000000000000	0.00000000000000	0.00000000000000	-0.73550080435253	0.00000000000000	0.00000000000000	0.00000000000000	0.00000000000000	0.00000000000000	0.00000000000000	0.00000000000000	0.00000000000000	0.04871155315627	
0.97333300000000	68.83361451000000	699.11237041000004	-53.59999422000000	0.06931189000000	-0.00000000000000	0.12588546000000	8.85941518000000	96.47883475000000	-13.08223688000000	0.39401940000000	-0.00000000000000	-0.08604072000000	-0.00000000000000	-0.41782809000000	0.00000000000000	0.00000000000000	0.26035323000000	-0.00000000000000	0.00000000000000	0.00000000000000	0.00000000000000	0.00000000000000	0.00000000000000	0.00000000000000	0.00000000000000	0.00000000000000	0.79017996675061	0.00000000000000	0.00000000000000	0.00000000000000	0.00000000000000	0.00000000000000	0.00000000000000	0.00000000000000	0.00000000000000	-0.06239348033239	0.00000000000000	0.00000000000000	0.00000000000000	0.00000000000000	0.00000000000000	0.00000000000000	0.00000000000000	0.00000000000000	-0.79017996675061	0.00000000000000	0.00000000000000	0.00000000000000	0.00000000000000	0.00000000000000	0.00000000000000	0.00000000000000	0.00000000000000	0.06239348033239	
0.97500000000000	69.87975831000000	697.22701390999998	-53.29234174000000	0.06838737000000	-0.00000000000000	0.12590632000000	8.64318097000000	101.30169622000000	-13.37101240000000	0.39565604000000	-0.00000000000000	-0.08624176000000	-0.00000000000000	-0.44504015000000	0.00000000000000	0.00000000000000	0.26655551000000	-0.00000000000000	0.00000000000000	0.00000000000000	0.00000000000000	0.00000000000000	0.00000000000000	0.00000000000000	0.00000000000000	0.00000000000000	0.84464443575365	0.00000000000000	0.00000000000000	0.00000000000000	0.00000000000000	0.00000000000000	0.00000000000000	0.00000000000000	0.00000000000000	-0.07648575437882	0.00000000000000	0.00000000000000	0.00000000000000	0.00000000000000	0.00000000000000	0.00000000000000	0.00000000000000	0.00000000000000	-0.84464443575365	0.00000000000000	0.00000000000000	0.00000000000000	0.00000000000000	0.00000000000000	0.00000000000000	0.00000000000000	0.00000000000000	0.07648575437882	
0.97666700000000	70.93002717000000	695.19296353000004	-52.95828180000000	0.06747884000000	-0.00000000000000	0.12592230000000	8.37056526000000	106.08997893999999	-13.61606098000000	0.39722233000000	-0.00000000000000	-0.08643699000000	-0.00000000000000	-0.47132702000000	0.00000000000000	0.00000000000000	0.27501463000000	-0.00000000000000	0.00000000000000	0.00000000000000	0.00000000000000	0.00000000000000	0.00000000000000	0.00000000000000	0.00000000000000	0.00000000000000	0.89123681360552	0.00000000000000	0.00000000000000	0.00000000000000	0.00000000000000	0.00000000000000	0.00000000000000	0.00000000000000	0.00000000000000	-0.10562408033654	0.00000000000000	0.00000000000000	0.00000000000000	0.00000000000000	0.00000000000000	0.00000000000000	0.00000000000000	0.00000000000000	-0.89123681360552	0.00000000000000	0.00000000000000	0.00000000000000	0.00000000000000	0.00000000000000	0.00000000000000	0.00000000000000	0.00000000000000	0.10562408033654	
0.97833300000000	71.98338663000000	693.00851747000002	-52.59775166000000	0.06658594000000	-0.00000000000000	0.12593335000000	8.05093967000000	110.88845658000000	-13.82488801000000	0.39871841000000	-0.00000000000000	-0.08662805000000	-0.00000000000000	-0.49664070000000	0.00000000000000	0.00000000000000	0.28609041000000	-0.00000000000000	0.00000000000000	0.00000000000000	0.00000000000000	0.00000000000000	0.00000000000000	0.00000000000000	0.00000000000000	0.00000000000000	0.93782919145740	0.00000000000000	0.00000000000000	0.00000000000000	0.00000000000000	0.00000000000000	0.00000000000000	0.00000000000000	0.00000000000000	-0.13476240629426	0.00000000000000	0.00000000000000	0.00000000000000	0.00000000000000	0.00000000000000	0.00000000000000	0.00000000000000	0.00000000000000	-0.93782919145740	0.00000000000000	0.00000000000000	0.00000000000000	0.00000000000000	0.00000000000000	0.00000000000000	0.00000000000000	0.00000000000000	0.13476240629426	
0.98000000000000	73.03872756000000	690.67194654000002	-52.21074230000000	0.06570817000000	-0.00000000000000	0.12593946000000	7.69195896000000	115.73543918999999	-14.00365855000000	0.40014379000000	-0.00000000000000	-0.08681641000000	-0.00000000000000	-0.52092670000000	0.00000000000000	0.00000000000000	0.30006948000000	-0.00000000000000	0.00000000000000	0.00000000000000	0.00000000000000	0.00000000000000	0.00000000000000	0.00000000000000	0.00000000000000	0.00000000000000	0.98442156930927	0.00000000000000	0.00000000000000	0.00000000000000	0.00000000000000	0.00000000000000	0.00000000000000	0.00000000000000	0.00000000000000	-0.16390073225197	0.00000000000000	0.00000000000000	0.00000000000000	0.00000000000000	0.00000000000000	0.00000000000000	0.00000000000000	0.00000000000000	-0.98442156930927	0.00000000000000	0.00000000000000	0.00000000000000	0.00000000000000	0.00000000000000	0.00000000000000	0.00000000000000	0.00000000000000	0.16390073225197	
